/* XPM */
static char *stopmotion[] = {
/* columns rows colors chars-per-pixel */
"32 32 4 1",
"  c black",
". c yellow",
"X c gray100",
"o c None",
/* pixels */
"oooooooooooooooooooooooooooooooo",
"oooooooooooooooooooooooooooooooo",
"oooooo  oooooooooooooooooooooooo",
"ooooo XX  oooooooooooooooooooooo",
"oooo         ooooooooooooooooooo",
"ooooo  XXXXX   ooooooooooooooooo",
"ooooooo          ooooooooooooooo",
"ooooooooo  XXXXX  oooooooooooooo",
"ooooooooooo         oooooooooooo",
"ooooooooooooo  XXXXX  oooooooooo",
"ooooooooooooooo         oooooooo",
"ooooooooooooooooo  XXXXX   ooooo",
"ooooooooooooooooooo     .X. oooo",
"ooooooooooooooooooooo   X.X oooo",
"ooo                     .X. oooo",
"ooo                        ooooo",
"ooo                        ooooo",
"ooo                        ooooo",
"ooo                        ooooo",
"ooo                        ooooo",
"ooo                        ooooo",
"ooo                        ooooo",
"ooo                        ooooo",
"ooo                        ooooo",
"ooo                        ooooo",
"ooo                        ooooo",
"ooo                        ooooo",
"ooo                        ooooo",
"ooo                        ooooo",
"ooo                        ooooo",
"oooooooooooooooooooooooooooooooo",
"oooooooooooooooooooooooooooooooo"
};
