/* XPM */
static char * logoLSM_icon32x32_xpm[] = {
"32 32 4 1",
" 	c None",
".	c #D40000",
"+	c #0000C6",
"@	c #000000",
"                                ",
"                                ",
"                                ",
"         .....         .....    ",
"        .......       ........  ",
"       .........     .........  ",
"       ..........    .......... ",
"      ...........    .......... ",
"      ...........    .......... ",
"       ..........    .......... ",
"       .........     .........  ",
"        .......       ........  ",
"         .....         ......   ",
"                                ",
"                                ",
"                                ",
" ++            @@@@@@@          ",
" ++++         @@@@@@@@@@        ",
" +++++       @@@@@@@@@@@        ",
" ++++++      @@@@@@@@@@@        ",
" ++++++++    @@@@@@@@@@@        ",
" +++++++++   @@@@@@@@@@@        ",
" +++++++++   @@@@@@@@@@@        ",
" ++++++++    @@@@@@@@@@@        ",
" +++++++     @@@@@@@@@@@        ",
" ++++++      @@@@@@@@@@@        ",
" +++++       @@@@@@@@@@@        ",
" +++          @@@@@@@@@         ",
" ++                             ",
"                                ",
"                                ",
"                                "};
