/* XPM */
static const char *addframeicon[] = {
"32 32 302 2",
"   s None c None",
".. c #528740",
"#. c #115306",
"a. c #000000",
"b. c #235074",
"c. c #8093a4",
"d. c #d0dbcf",
"e. c #175500",
"f. c #699fce",
"g. c #356d96",
"h. c #253c1b",
"i. c #5ca444",
"j. c #5191c1",
"k. c #a6b8c9",
"l. c #d2e5cf",
"m. c #969ca2",
"n. c #271d24",
"o. c #696766",
"p. c #5291c1",
"q. c #585759",
"r. c #bbcedc",
"s. c #5d8ab1",
"t. c #218102",
"u. c #4b88bd",
"v. c #373a39",
"w. c #306082",
"x. c #52708d",
"y. c #5aac41",
"z. c #1d6402",
"A. c #54a640",
"B. c #c3d5e1",
"C. c #4b83b2",
"D. c #b5c2cc",
"E. c #a0ba94",
"F. c #234916",
"G. c #a0aa9b",
"H. c #3d3c3c",
"I. c #509340",
"J. c #b3c8d7",
"K. c #ecf2ea",
"L. c #237005",
"M. c #1b600d",
"N. c #41769a",
"O. c #9ebbd2",
"P. c #313832",
"Q. c #323a31",
"R. c #adc0ce",
"S. c #4c8ebf",
"T. c #8397a7",
"U. c #25620b",
"V. c #1d1f1c",
"W. c #dfe4e9",
"X. c #38729d",
"Y. c #76a3c7",
"Z. c #b3c1cd",
"0. c #a2c295",
"1. c #6995bd",
"2. c #1d3d0f",
"3. c #639ed0",
"4. c #575357",
"5. c #3a383a",
"6. c #b0c3d1",
"7. c #6e93b0",
"8. c #605f5e",
"9. c #105900",
".# c #2b7c08",
"## c #65b346",
"a# c #2f8d09",
"b# c #787679",
"c# c #5e89b2",
"d# c #7098bb",
"e# c #519e40",
"f# c #423f3f",
"g# c #b7c7d3",
"h# c #b0cde3",
"i# c #406640",
"j# c #2c730c",
"k# c #b4cbdf",
"l# c #504e4d",
"m# c #a7b9c5",
"n# c #8aa1b4",
"o# c #144f0d",
"p# c #619bc9",
"q# c #6098c6",
"r# c #d3e7cf",
"s# c #37709a",
"t# c #b1cde3",
"u# c #4081b5",
"v# c #508ab8",
"w# c #224f6d",
"x# c #3a393a",
"y# c #aebdc7",
"z# c #5485a8",
"A# c #898682",
"B# c #5c93c0",
"C# c #353434",
"D# c #312a30",
"E# c #6b9ac4",
"F# c #98b9d0",
"G# c #4d88b5",
"H# c #8fb9da",
"I# c #a9a8a9",
"J# c #1e1729",
"K# c #8f8989",
"L# c #467ead",
"M# c #666261",
"N# c #d8ecd1",
"O# c #323231",
"P# c #cacbcb",
"Q# c #3d4d62",
"R# c #120613",
"S# c #aec4d6",
"T# c #4881b0",
"U# c #d9ecd1",
"V# c #263524",
"W# c #6a9bc4",
"X# c #3f4e5d",
"Y# c #1a181c",
"Z# c #d0dfcf",
"0# c #a7a6a6",
"1# c #5f5f5f",
"2# c #403f40",
"3# c #b3caab",
"4# c #9cbcd3",
"5# c #237c01",
"6# c #92b9da",
"7# c #5aad42",
"8# c #437140",
"9# c #2f8f09",
".a c #5f90bd",
"#a c #8e979e",
"aa c #485e7d",
"ba c #4d9740",
"ca c #5492c2",
"da c #6fa6d5",
"ea c #297508",
"fa c #939392",
"ga c #041800",
"ha c #144401",
"ia c #3d78a4",
"ja c #3a6c8f",
"ka c #6996b5",
"la c #d4e9cf",
"ma c #bacdda",
"na c #3e506a",
"oa c #478540",
"pa c #404040",
"qa c #143515",
"ra c #6b99b8",
"sa c #2f5f80",
"ta c #4b7696",
"ua c #4788bb",
"va c #447eae",
"wa c #39739e",
"xa c #5381a2",
"ya c #b0c4d2",
"za c #709bbb",
"Aa c #195e07",
"Ba c #4a83b4",
"Ca c #99b590",
"Da c #5390bf",
"Ea c #305f80",
"Fa c #5b5f69",
"Ga c #a9a8aa",
"Ha c #66b447",
"Ia c #257e05",
"Ja c #383a3b",
"Ka c #d4e3f1",
"La c #5c8eb6",
"Ma c #2b3b26",
"Na c #acbfcc",
"Oa c #176f00",
"Pa c #649cce",
"Qa c #191224",
"Ra c #3c393b",
"Sa c #588cb3",
"Ta c #1f450d",
"Ua c #306992",
"Va c #2c5a7a",
"Wa c #235980",
"Xa c #85b0d3",
"Ya c #71a5cd",
"Za c #5389b5",
"0a c #70a3ce",
"1a c #203f14",
"2a c #1e2a19",
"3a c #eef4eb",
"4a c #77a9cf",
"5a c #d1e1cf",
"6a c #97bcd9",
"7a c #2e2d2c",
"8a c #192c10",
"9a c #403f41",
".b c #244864",
"#b c #535251",
"ab c #d6eacf",
"bb c #2f2e30",
"cb c #cee0ef",
"db c #242424",
"eb c #485d7a",
"fb c #403d42",
"gb c #6695bb",
"hb c #b8cedf",
"ib c #528dc1",
"jb c #ffffff",
"kb c #d6e8d0",
"lb c #d8e0e5",
"mb c #9abfdc",
"nb c #999b9c",
"ob c #75aad8",
"pb c #cbd1d7",
"qb c #4b81b1",
"rb c #437faa",
"sb c #45677f",
"tb c #c4d6e3",
"ub c #5b87a8",
"vb c #577ca0",
"wb c #a2b9cc",
"xb c #7ea6c7",
"yb c #d4e1cf",
"zb c #161815",
"Ab c #4f8aba",
"Bb c #acaba9",
"Cb c #666c70",
"Db c #143e12",
"Eb c #98ad90",
"Fb c #16486f",
"Gb c #b0c9de",
"Hb c #90b2cd",
"Ib c #bbd4b0",
"Jb c #464547",
"Kb c #8998a4",
"Lb c #39739f",
"Mb c #457e40",
"Nb c #244516",
"Ob c #abb2b8",
"Pb c #99afc0",
"Qb c #9fb3c2",
"Rb c #cfd9cf",
"Sb c #b5b3b2",
"Tb c #242325",
"Ub c #144568",
"Vb c #326284",
"Wb c #918d89",
"Xb c #acbfcd",
"Yb c #4b8dbe",
"Zb c #1c4709",
"0b c #9fafbb",
"1b c #0e1e2a",
"2b c #070609",
"3b c #383739",
"4b c #7f7a79",
"5b c #397aae",
"6b c #5695cb",
"7b c #a6c5dd",
"8b c #224b14",
"9b c #4a7390",
".c c #3d495d",
"#c c #4e90c1",
"ac c #b6cad9",
"bc c #191218",
"cc c #d1d8dd",
"dc c #557796",
"ec c #639d4a",
"fc c #abbdca",
"gc c #adc6dc",
"hc c #8fa9c0",
"ic c #3b383d",
"jc c #729dc0",
"kc c #a6b8c4",
"lc c #9f9f9f",
"mc c #1f151f",
"nc c #4c9240",
"oc c #238902",
"pc c #b3b8be",
"qc c #565555",
"rc c #4b8bbb",
"sc c #3c383d",
"tc c #5c98c5",
"uc c #142411",
"vc c #749fbf",
"wc c #161a1e",
"xc c #406d40",
"yc c #9fad99",
"zc c #d2e4cf",
"Ac c #104200",
"Bc c #4d4e4c",
"Cc c #487b9f",
"Dc c #164a12",
"Ec c #9b9a99",
"Fc c #98aebd",
"Gc c #9eb2bf",
"Hc c #d6ebd0",
"Ic c #d3e4cf",
"Jc c #143c14",
"Kc c #cfdbcf",
"Lc c #869aa9",
"Mc c #d8e6d2",
"Nc c #80a5c4",
"Oc c #4777a1",
"Pc c #336a93",
"Qc c #24516f",
"                                                      a.a.      ",
"                                                      a.a.      ",
"                                                      a.a.      ",
"                                                a.a.a.a.a.a.a.a.",
"                                                a.a.a.a.a.a.a.a.",
"                                                      a.a.      ",
"                                                      a.a.      ",
"                                                      a.a.      ",
"                                                                ",
"  jbjbjbjbjbjbjbjbjbjbjbjbjbjbjbjbjbjbjbjbjb                    ",
"  jblbkckcm#fcNaNaXbR.yaJ.acr.tbB.mag#D.W.jb                    ",
"  jbGcw#w#QcVaEasaw.VbjaN.Ccz#rakaxa9bsby#jb                    ",
"  jbFcUbWaUaPcg.s#X.waiarbSavc4#F#zaubta6.jb                    ",
"  jbPbFbLbcav#G#rcYbS.S.j.YambKacb6aY.Lahbjbjbjbjbjbjb          ",
"  jbQbb.7.7bO.NcT#5bu#ua#ctc4ah#t#XaW#Zak#jbmag#D.W.jb          ",
"  jb0b.bLcccpbk.s.L#BaAbDap.p#H#6#0aB#C.Gbjbxa9bsby#jb          ",
"  jbm.1bCbBbSbpcwbHbxbjcgbq#3.obda6bu.vagcjbzaubta6.jb          ",
"  jbnbwcqcA#Wbfa#aKbT.n#hcd#.af.PaibqbOcS#jb6aY.Lahbjb          ",
"  jb0#C##bo.8.l#C#pa1#EcP#c.dc1.E#c#vbx.Z.jbXaW#Zak#jb          ",
"  jbI#Ra5.x#2#H.7af#M#4bK#Fa.cebaanaQ#X#Objb0aB#C.Gbjb          ",
"  jbGaicY#2bTb3b9aq.b#4.D#n.mcJ#QaR#bcdblcjb6bu.vagcjb          ",
"  jbG.h.2aV.bbscfbJbBcO#zb8a2.F.8bZbTaNbycjbibqbOcS#jb          ",
"  jbEbha1aMaQ.v.JaP.V#ucgaAcz.ea.#5#L.U.E.jbc#vbx.Z.jb          ",
"  jbCae.AaM.DcJcqaDbo##.9.Oat.a#9#ocIaj#0.jbnaQ#X#Objb          ",
"  jb3#..I.baMbxci#8#oance#A.7#Ha##y.i.ecIbjbR#bcdblcjb          ",
"  jbK.ybIcl.Z#KcRbd.5azcr#laHcU#N#abkbMc3ajbZbTaNbycjb          ",
"            jbEbha1aMaQ.v.JaP.V#ucgaAcz.ea.#5#L.U.E.jb          ",
"            jbCae.AaM.DcJcqaDbo##.9.Oat.a#9#ocIaj#0.jb          ",
"            jb3#..I.baMbxci#8#oance#A.7#Ha##y.i.ecIbjb          ",
"            jbK.ybIcl.Z#KcRbd.5azcr#laHcU#N#abkbMc3ajb          ",
"                                                                ",
"                                                                "};
