/* XPM */
static const char *cameraon[] = {
/* columns rows colors chars-per-pixel */
"32 32 11 1",
"  c black",
". c #111111",
"X c #222222",
"o c #444444",
"O c #555555",
"+ c #777777",
"@ c #FF0033",
"# c gray60",
"$ c #A0A0A4",
"% c #C0C0C0",
"& c None",
/* pixels */
"&&&&&&&&&&&&&&&&&&&&&&&&&&&&&&&&",
"&&&&&&&&&&&&&&&&&&&&&&&&&&&&&&&&",
"&&&&&&&&&&&&&&&&&&&&&&&&&&&&&&&&",
"&&&&&&&&&&&&&&&&&&&&&&&&&&&&&&&&",
"&&&&&&&&&&&&&&&&&&&&&&&&&&&&&&&&",
"&&&&&&&&&&&&&&&&&&&&&&&&&&&&&&&&",
"&&&&&&&&&&&&&&&&&&&&&&&&&&&&&&& ",
"&&&&&&&&&&&&&&&&&&&&...& &...&  ",
"&&&&&&&&&&&&&&&&&&&.OOO.O.OO.&  ",
"&&&&&&&&&&&&&&&&&&.O...O.O...&  ",
"&&&&&&&&&&&&&&&&&.O..........&  ",
"&&&&&&&&&&&&&&&&&.O.........&&& ",
"&&&&&&   &..&&&&&.O........&&&&&",
"&&&&&&   &.O &&&...............&",
"&&&&&&   &..O.& OOOOOOOOOOOOOOO.",
"&&&&&&   &.....O..............O.",
".&&&&&&&&&&...O..@@.....++++++..",
"..&&&&&&&....O.........+......+.",
".+.&...& %.%.......++..+........",
".O.&.#.& $.$.++++++..O.+..oo....",
"...&.+.& #.#.OOOOOO#.O.+..oo..+.",
"...&.O.& +.+.ooooooo.O.+......+.",
"...&.o.& O.O.XXXXXXX.O.+..oo..+.",
"...&.X.& o.o.........O.+..oo....",
"...&...& X.X.......OO..+........",
"..&&&&&&&...OOOOOOO....+......+.",
".&&&&&&&&&&&............++++++..",
"&&&&&&&&&&&&&..................&",
"&&&&&&&&&&&&&&&&&&&&&&&&&&&&&&&&",
"&&&&&&&&&&&&&&&&&&&&&&&&&&&&&&&&",
"&&&&&&&&&&&&&&&&&&&&&&&&&&&&&&&&",
"&&&&&&&&&&&&&&&&&&&&&&&&&&&&&&&&"
};
