/* XPM */
static const char *cameraoff[] = {
"45 32 12 1",
"  s None c None",
". c #a0a0a4",
"# c #ffff00",
"a c #000000",
"b c #c0c0c0",
"c c #ff0033",
"d c #222222",
"e c #444444",
"f c #999999",
"g c #777777",
"h c #555555",
"i c #111111",
"                                             ",
"                                             ",
"                                             ",
"                                             ",
"                                             ",
"                                             ",
"                                            a",
"                                 iii a iii aa",
"                                ihhhihihhi aa",
"                               ihiiihihiii aa",
"                              ihiiiiiiiiii aa",
"                              ihiiiiiiiii   a",
"##                 aaa ii     ihiiiiiiii     ",
"####               aaa iha   iiiiiiiiiiiiiii ",
"######             aaa iihi ahhhhhhhhhhhhhhhi",
"########           aaa iiiiihiiiiiiiiiiiiiihi",
"##########   i          iiihiicciiiiiggggggii",
"############ ii       iiiihiiiiiiiiigiiiiiigi",
"############ igi iii abibiiiiiiiggiigiiiiiiii",
"#############ihi ifi a.i.iggggggiihigiieeiiii",
"#############iii igi afifihhhhhhfihigiieeiigi",
"#############iii ihi agigieeeeeeeihigiiiiiigi",
"#############iii iei ahihidddddddihigiieeiigi",
"#############iii idi aeieiiiiiiiiihigiieeiiii",
"############ iii iii adidiiiiiiihhiigiiiiiiii",
"############ ii       iiihhhhhhhiiiigiiiiiigi",
"##########   i           iiiiiiiiiiiiggggggii",
"########                  iiiiiiiiiiiiiiiiii ",
"######                                       ",
"####                                         ",
"##                                           ",
"                                             "};
