/* XPM */
static const char *captureicon[]={
"32 22 7 1",
". c None",
"# c #000000",
"d c #585858",
"c c #7f7f7f",
"e c #a0a0a0",
"a c #bfbfbf",
"b c #fefefe",
".............######.............",
"............#abaaaa#............",
"...........#abbaaaaa#...........",
"...........#bbbaaaaa#.....ccc...",
"...#ccc#..#abbaaaaaaa#...ccccc..",
"..############################..",
".#ddddddeeeeeeeeeeeeeeeeeeeeee#.",
".#ddddddeeeeeeeeeeeeeeeeeeeeee#.",
".#ddddddeeee########eeeeeeeeee#.",
".#ddddddeee##cccccc##eeeeeeeee#.",
".#ddddddee##ccaaaacc##eeeeeeee#.",
".#ddddddee#ccabbbaacc#eeeeeeee#.",
".#ddddddee#caabbaaaac###eeeeee#.",
".#ddddddee#cabbbaaaac#e#eeeeee#.",
".#ddddddee#cabbaaaaac#e#eeeeee#.",
".#ddddddee#cbbbaaaaac###eeeeee#.",
".#ddddddee#cabbaaaaac#eeeeeeee#.",
".#ddddddee##caaaaaac##eeeeeeee#.",
".#ddddddeee##caaaac##eeeeeeeee#.",
".#ddddddeeee########eeeeeeeeee#.",
".#ddddddeeeeeeeeeeeeeeeeeeeeee#.",
".##############################."};
