/* XPM */
static const char *closeicon[]={
"16 16 151 2",
".f c #a7190f",
".e c #aa3127",
".u c #ab3228",
"#2 c #af3930",
".d c #af443c",
"ar c #b03931",
"ae c #b7554e",
".c c #b7776e",
"aq c #b8564f",
".G c #ba554a",
"#0 c #bd3e2f",
"#O c #bd3f30",
"#E c #bd4131",
"#w c #bd4838",
"#m c #bd4e3f",
"#b c #bd4f3f",
".4 c #bd4f40",
".T c #bd5041",
"ac c #be4f43",
".a c #bebab3",
".g c #c0bcb5",
".b c #c0bdb5",
".t c #c1beb6",
".# c #c3bfb8",
".H c #c5c2ba",
"ap c #ca948e",
".U c #cac6bf",
".5 c #cdc9c2",
"Qt c #cfcbc3",
"#c c #d1cdc7",
"#n c #d4d1ca",
"#x c #d7d4ce",
"as c #d9d5ce",
"#F c #dad7d2",
"#P c #dddbd5",
"#1 c #e0ddd8",
"ao c #e2e0db",
"ad c #e3e0db",
"at c #e4e2dd",
"au c #e6e4df",
".h c #f3d5cc",
"an c #f67f73",
"af c #f6a99b",
".s c #f6b5a6",
"#M c #ff5d4a",
"a. c #ff5e4b",
"#Y c #ff624d",
"#D c #ff624f",
"#9 c #ff6450",
"#u c #ff6653",
"a# c #ff6751",
"#8 c #ff6956",
"#X c #ff6958",
"#7 c #ff6d5a",
"#t c #ff6f5c",
"#V c #ff705e",
"#6 c #ff7360",
"#U c #ff7562",
"#k c #ff7963",
"#j c #ff7f6b",
"aa c #ff8175",
"#R c #ff8574",
"#5 c #ff8671",
"#C c #ff887a",
"#W c #ff897a",
"#q c #ff8d7a",
"#s c #ff9183",
"#K c #ff9284",
"#T c #ff9384",
"#Q c #ff957f",
"#J c #ff9687",
"#e c #ff9984",
"#i c #ff9a8b",
"ab c #ff9a8c",
"#H c #ff9b85",
"#Z c #ff9d8e",
"#A c #ffa091",
"#z c #ffa18b",
"#r c #ffa393",
"## c #ffa488",
"#N c #ffa495",
".2 c #ffa589",
"#p c #ffa68f",
"#f c #ffa99a",
"am c #ffaa9b",
".R c #ffad91",
"#4 c #ffada1",
".Q c #ffae95",
".N c #ffae96",
"al c #ffafa1",
".M c #ffb098",
"#d c #ffb09a",
"#v c #ffb2a4",
"ak c #ffb5a6",
".D c #ffb69a",
"#. c #ffb8a2",
".C c #ffb99e",
"aj c #ffbaac",
".B c #ffbba1",
".J c #ffbba5",
".A c #ffbda4",
".O c #ffbda9",
".0 c #ffbdaa",
".Z c #ffbeac",
"ai c #ffbeb0",
".z c #ffbfa6",
".8 c #ffbfad",
".L c #ffc1ae",
".y c #ffc2aa",
".7 c #ffc2ab",
".x c #ffc4ad",
"ah c #ffc4b5",
"#l c #ffc5b7",
".W c #ffc6af",
"ag c #ffc6b7",
".w c #ffc7af",
".E c #ffc7b9",
".I c #ffcab3",
"#3 c #ffd1c2",
"#L c #ffd1cb",
"#a c #ffd2c4",
".3 c #ffd5c7",
".S c #ffd7ca",
"#S c #ffd7d1",
".F c #ffd8ca",
"#I c #ffd9d4",
".r c #ffddcd",
"#G c #ffe0d1",
".q c #ffe1d2",
".v c #ffe2d7",
".1 c #ffe4dd",
"#y c #ffe5d6",
".p c #ffe5d7",
".P c #ffe5dd",
".K c #ffe8e1",
".o c #ffe9dc",
"#o c #ffebdd",
".n c #ffeee0",
".m c #fff2e4",
".l c #fff7e9",
"#B c #fff7f5",
"#h c #fff7f6",
".6 c #fff8eb",
"#g c #fff8f7",
".9 c #fff9f8",
".k c #fffaed",
".Y c #fffaf8",
".V c #fffbef",
".j c #fffdf1",
".i c #fffdf3",
".X c #ffffff",
"Qt.#.a.a.a.a.a.a.a.a.a.a.a.a.#Qt",
".b.c.d.e.f.f.f.f.f.f.f.f.e.d.c.b",
".g.d.h.i.j.k.l.m.n.o.p.q.r.s.d.g",
".t.u.i.v.w.x.y.z.A.B.C.D.E.F.G.t",
".H.f.i.I.J.K.L.M.N.O.P.Q.R.S.T.H",
".U.f.V.W.K.X.Y.Z.0.Y.X.1.2.3.4.U",
".5.f.6.7.8.Y.X.Y.Y.X.9#.###a#b.5",
"#c.f.m#d#e#f#g.X.X#h#i#j#k#l#m#c",
"#n.f#o#p#q#r#g.X.X#h#s#t#u#v#w#n",
"#x.f#y#z#A#g.X#h#h.X#B#C#D#f#E#x",
"#F.f#G#H#I.X#h#J#K#B.X#L#M#N#O#F",
"#P.f.F#Q#R#S#T#U#V#W#L#X#Y#Z#0#P",
"#1#2#3#4#5#6#V#7#8#9a.a#aaabac#1",
"adaeafagahaiajakalam#N#Zabanaead",
"aoapaqar.f.f.f.f.f.f.f.faraqapao",
"asatauauauauauauauauauauauauatas"};
