/* XPM */
static const char *closescene[]={
"16 16 4 1",
"b c None",
". c None",
"a c #000000",
"# c #89878a",
"................",
"................",
"..........#.....",
".........#a.....",
".......##aa.....",
"......#aaaa.....",
"....##aaaaa.....",
"...#aaaaaaa.....",
"..#aaaaaaaa.....",
"..#aaaaaaaa..bb.",
"...#aaaaaaa..bb.",
"....##aaaaa.....",
"......#aaaa.....",
".......##aa.....",
".........#a.....",
"..........#....."};
