/* XPM */
static const char *copyicon[]={
"16 16 71 2",
".f c None",
".p c #ffffff",
"#c c #37342f",
"#b c #3b3732",
".4 c #3c3832",
"#a c #3f3b34",
".T c #413c36",
"## c #433e37",
".P c #454039",
"#. c #47413a",
".M c #4a443c",
".9 c #4b453d",
".I c #4f4840",
".8 c #534b43",
".E c #534c43",
".7 c #574f45",
".A c #585046",
".6 c #5b5248",
".u c #5d544a",
".V c #5f564c",
".t c #61584d",
".Q c #645a4f",
".s c #655b50",
".o c #665c50",
".r c #695e52",
".m c #6d6256",
".j c #6e6356",
".i c #726659",
".e c #776a5d",
".d c #7b6e5f",
".v c #7c6e60",
".c c #7f7162",
".q c #807263",
".b c #837465",
".k c #857667",
".a c #877868",
".g c #8a7a6a",
".# c #8b7b6b",
"Qt c #8f7f6e",
".F c #aaaaaa",
"#e c #b1b1b1",
"#d c #b5b5b5",
".5 c #bababa",
".D c #bbac94",
".H c #bca687",
".z c #bcb4ad",
".O c #bda07a",
".L c #bda280",
".3 c #be9b6d",
".U c #bebebe",
".S c #bf9f73",
".2 c #bf9f76",
".1 c #bfa682",
".0 c #c1aa8a",
".Z c #c1ae96",
".Y c #c2b59f",
".X c #c3b9aa",
".J c #c3c3c3",
".W c #c5beb4",
".h c #dedede",
".y c #e0dedd",
".R c #e6c9a3",
".N c #e9d0ac",
".K c #ecd6b9",
".G c #efdcc2",
".C c #f1e3ce",
".B c #f4e9db",
".x c #f8f0e5",
".w c #f9f6f2",
".n c #faf7f5",
".l c #ffffff",
"Qt.#.a.b.c.d.e.f.f.f.f.f.f.f.f.f",
".g.h.h.h.h.h.i.j.f.f.f.f.f.f.f.f",
".k.h.l.l.l.l.m.n.o.f.f.f.f.p.f.f",
".q.h.l.l.l.l.r.s.t.u.f.f.f.f.f.f",
".v.h.l.l.l.w.x.y.z.A.s.d.e.f.f.f",
".e.h.l.l.w.x.B.C.D.E.F.h.i.j.f.f",
".i.h.l.w.x.B.C.G.H.I.J.l.m.n.o.f",
".m.h.w.x.B.C.G.K.L.M.J.l.r.s.t.u",
".r.h.x.B.C.G.K.N.O.P.J.w.x.y.z.A",
".Q.h.B.C.G.K.N.R.S.T.U.x.B.C.D.E",
".V.W.X.Y.Z.0.1.2.3.4.5.B.C.G.H.I",
".6.7.8.I.9#.###a#b#c#d.C.G.K.L.M",
".f.f.f.f.f.f.9.F.5#d#e.G.K.N.O.P",
".f.f.f.f.f.f.Q.h.B.C.G.K.N.R.S.T",
".f.f.f.f.f.f.V.W.X.Y.Z.0.1.2.3.4",
".f.f.f.f.f.f.6.7.8.I.9#.###a#b#c"};
