/* XPM */
static const char *cuticon[]={
"16 16 81 2",
".# c None",
"Qt c None",
".l c #000000",
".4 c #101214",
"## c #141414",
"#e c #161616",
".M c #181d25",
"#k c #1b1b1b",
".H c #1c1810",
"#h c #1e1e1e",
".W c #261600",
"#o c #262626",
".q c #271600",
".X c #291900",
"#c c #292929",
".j c #2b1800",
".2 c #2c2c2c",
".o c #2d2518",
".9 c #2d2d2d",
"#n c #2e2e2e",
"#f c #303030",
".5 c #322100",
"#i c #363636",
".G c #372200",
".x c #382400",
".Z c #392500",
"#l c #3e3e3e",
".S c #412d09",
".d c #412f0f",
".t c #422b00",
".n c #432b00",
".U c #454647",
".B c #46320a",
".i c #493103",
".e c #4b3103",
".a c #4e3910",
".Q c #503400",
".K c #514939",
"#m c #515151",
".p c #543d12",
".u c #594620",
".Y c #5b3c00",
".y c #5f3f00",
".8 c #5f5f5f",
"#b c #636363",
".w c #6a5222",
".0 c #6b6b6b",
".T c #6c6c6c",
".6 c #707070",
".F c #754e00",
".c c #7a6233",
".R c #7f5300",
".L c #7f5501",
".O c #805100",
".D c #826d48",
".b c #846f3d",
".z c #8a5900",
".m c #987200",
".s c #9d7800",
".P c #ae7609",
".I c #af780f",
".g c #b0934c",
".A c #b57a00",
".J c #b59958",
".r c #ba9625",
".E c #bb9124",
".h c #bc972f",
".v c #beac80",
".f c #c5ac67",
"#g c #cdcdcd",
"#a c #d3d3d3",
"#j c #d4d4d4",
".k c #d8c17a",
"#d c #dddddd",
".C c #e3d1a2",
".1 c #ececec",
".N c #ede6da",
"#. c #ededed",
".V c #f0f4fa",
".3 c #f1f2f3",
".7 c #f3f3f3",
"QtQtQtQtQt.#.a.b.c.d.#.#QtQtQtQt",
"QtQtQtQt.#.e.f.g.h.i.#.#QtQtQt.#",
"QtQtQtQt.#.j.k.l.m.n.#.o.p.q.#.#",
"QtQtQtQt.#.l.r.l.s.t.#.u.v.w.l.#",
"QtQtQtQt.#.x.y.z.A.l.B.C.D.E.F.#",
"QtQtQtQt.#.#.G.H.I.l.J.K.l.L.F.#",
"QtQtQtQtQt.#.#.M.N.O.P.Q.R.F.S.#",
"QtQtQt.#.#.#.T.U.V.W.#.X.Y.Z.#.#",
"QtQtQt.#.#.0.1.2.3.4.#.#.5.#.#.#",
"QtQtQt.#.6.7.8.9#.##.#.#.#.#.#.#",
"QtQt.#.6#a#b.##c#d##.#.#.#.#.#.#",
"Qt.##e.6.T.#.##f#g##.#.#.#.#.#.#",
"Qt.##h.2.#.#.##i#j#k.#.#.#.#.#.#",
"Qt.#.#.#.#.#.##l#m.T.#.#.#.#.#.#",
"QtQt.#.#.#.#.##n#o.#.#.#.#.#.#.#",
"Qt.#.#.#.#.#.#.#.#.#.#.#.#.#.#.#"};
