/* XPM */
static const char *fileopenicon[]={
"18 18 73 2",
".# c None",
"Qt c None",
".a c #000000",
".L c #021b2c",
".b c #093759",
".7 c #0e3e60",
".K c #1f5070",
".z c #343434",
"## c #346c84",
".Y c #377087",
".S c #397389",
".A c #3b5b70",
".5 c #3f7b95",
".Z c #407d98",
"#e c #43809c",
".0 c #4482a0",
".6 c #4584a1",
".Q c #4585a4",
"#a c #4685a2",
".G c #4887a4",
".B c #4887a5",
".H c #4987a5",
".C c #4a87a5",
".v c #4a88a5",
".w c #4b88a5",
".R c #4c89a5",
".x c #4c89a6",
".q c #4d89a6",
".I c #4d8aa6",
".r c #4e8aa6",
".y c #4f8aa6",
".J c #4f8ba6",
".s c #508ba6",
"#g c #515c63",
".D c #518ba6",
".t c #518ca7",
".i c #528ca7",
".l c #538ca7",
".u c #538da7",
".m c #548da7",
".n c #558da7",
".j c #558ea7",
".o c #568ea7",
".k c #568ea8",
".p c #578ea8",
".e c #578fa8",
".f c #588fa8",
".g c #5990a8",
".h c #5a90a8",
".c c #5a91a9",
".d c #5b91a9",
"#f c #6c6c6c",
"#d c #818181",
"#. c #919191",
"#c c #9a9a9a",
".9 c #ababab",
"#b c #b3b3b3",
".4 c #bbbbbb",
".8 c #c4c4c4",
".3 c #d5d5d5",
".X c #d8d8d8",
".2 c #dadada",
".W c #dddddd",
".1 c #dfdfdf",
".V c #e2e2e2",
".P c #e5e5e5",
".U c #e7e7e7",
".O c #eaeaea",
".T c #ececec",
".N c #efefef",
".F c #f1f1f1",
".M c #f4f4f4",
".E c #f7f7f7",
"QtQtQtQtQtQt.#.#QtQt.aQt.a.a.a.aQtQt",
"QtQtQtQt.b.b.#QtQtQt.a.a.a.aQt.a.aQt",
"QtQtQt.b.c.d.b.bQtQt.a.a.aQtQtQt.a.a",
"QtQtQt.b.e.f.g.h.bQt.a.a.a.aQtQtQt.a",
"QtQt.b.i.j.k.e.f.bQtQtQtQtQtQtQtQt.a",
"QtQt.b.i.l.m.n.o.p.b.bQtQtQtQtQt.aQt",
"Qt.b.q.r.s.t.i.u.m.j.k.b.bQtQtQtQtQt",
"Qt.b.v.w.x.y.s.t.i.u.m.j.k.bQtQtQtQt",
".z.A.A.B.C.w.r.y.s.D.i.l.m.bQtQtQtQt",
".z.E.F.A.A.G.H.x.I.r.J.s.K.LQtQtQtQt",
".z.M.N.O.P.A.A.Q.w.R.q.r.b.S.bQtQtQt",
".z.F.T.U.V.W.X.A.A.v.w.b.Y.Z.0.bQtQt",
"Qt.z.z.P.1.2.3.3.4.A.A.b.5.6.7QtQtQt",
"QtQtQt.z.z.X.3.8.9#..z###a.bQtQtQtQt",
"QtQtQtQtQt.z.z#b#c#d.z#e.bQtQtQtQtQt",
"QtQtQtQtQtQtQt.z.z#f#g.bQtQtQtQtQtQt",
"QtQtQtQtQtQtQtQtQt.z.zQtQtQtQtQtQtQt",
"QtQtQtQtQtQtQtQtQtQtQtQtQtQtQtQtQtQt"};
