/* XPM */
static const char *filenewicon[]={
"18 18 77 2",
"Qt c None",
".j c #303030",
".n c #424242",
".k c #494600",
".# c #585858",
".m c #6b6b6b",
".f c #6d6d6d",
".h c #707070",
".l c #898989",
".r c #8f8984",
".c c #999999",
".b c #bcb7b1",
".w c #beb6af",
".x c #c0c000",
".C c #c1c10a",
"#k c #c79f80",
"#b c #c8a487",
"#j c #c9a68a",
".6 c #caa98e",
"#i c #cbac93",
".0 c #cbad95",
"#h c #cdb19c",
".U c #cdb29c",
".O c #ceb6a3",
".i c #cecece",
"#g c #cfb7a5",
".J c #d0bbaa",
"#f c #d1beae",
".B c #d1bfb0",
"#e c #d3c3b7",
"#d c #d5c9c0",
"#c c #d7cfc9",
".a c #dedede",
".q c #e2e0de",
".v c #e7e0d9",
"#a c #e9c7aa",
".e c #eaeaea",
".5 c #ecceb4",
"## c #eed4bd",
".Z c #eed4be",
".4 c #eed5be",
"#. c #f0d9c5",
".Y c #f0dbc7",
".3 c #f1dac7",
".T c #f1dbc7",
".N c #f2ddcb",
".2 c #f2e0cf",
".9 c #f2e0d0",
".S c #f3e1d1",
".I c #f4e3d5",
".M c #f4e4d5",
".8 c #f5e5d8",
".X c #f5e6d9",
".1 c #f5e7da",
".R c #f6e7da",
".H c #f6e9de",
".A c #f6e9df",
".p c #f6f5f5",
".L c #f7e9de",
".Q c #f8ece2",
".W c #f8ede3",
".K c #f9eee6",
".G c #f9efe7",
".z c #faf1ea",
".7 c #faf1eb",
".V c #faf3ec",
".P c #faf3ed",
".F c #faf5ef",
".u c #fbf6f2",
".y c #fbf7f3",
".g c #fcfcfc",
".E c #fdfbf9",
".t c #fefcfb",
".s c #ffff00",
".o c #ffff85",
".D c #ffffc0",
".d c #ffffff",
"QtQtQtQtQt.#.#.#.#.#.#.#.#.#QtQtQtQt",
"QtQtQtQtQt.#.a.a.a.a.a.b.#.c.#QtQtQt",
"QtQtQtQtQt.#.a.d.d.d.d.e.f.d.c.#QtQt",
"QtQtQtQtQt.#.a.d.d.d.d.g.h.i.d.c.jQt",
"QtQtQtQtQt.k.a.d.d.d.d.d.l.h.m.n.jQt",
"QtQt.kQt.k.o.k.d.k.d.d.d.p.q.b.r.jQt",
"Qt.k.o.k.k.s.k.k.o.k.d.d.t.u.v.w.jQt",
"QtQt.k.s.x.s.x.s.k.d.d.t.y.z.A.B.jQt",
"Qt.k.k.C.D.o.D.x.k.k.E.F.G.H.I.J.jQt",
".k.o.s.s.o.d.o.s.s.o.k.K.L.M.N.O.jQt",
"Qt.k.k.x.D.o.D.x.k.k.P.Q.R.S.T.U.jQt",
"QtQt.k.s.x.s.x.s.k.V.W.X.S.Y.Z.0.jQt",
"Qt.k.o.k.k.s.k.k.o.k.1.2.3.4.5.6.jQt",
"QtQt.kQt.k.o.k.7.k.8.9#.##.5#a#b.jQt",
"QtQtQtQtQt.k#c#c#d#e#f#g#h#i#j#k.jQt",
"QtQtQtQtQt.#.j.j.j.j.j.j.j.j.j.j.jQt",
"QtQtQtQtQtQtQtQtQtQtQtQtQtQtQtQtQtQt",
"QtQtQtQtQtQtQtQtQtQtQtQtQtQtQtQtQtQt"};
