/* XPM */
static const char *filesaveicon[]={
"18 18 71 2",
"Qt c None",
".# c None",
".a c None",
".b c #1c1c1c",
".c c #404040",
".7 c #424242",
"#e c #535353",
"#c c #545454",
"#. c #585858",
".6 c #5b5b5b",
".Z c #5f5f5f",
".Y c #606060",
".X c #626262",
".W c #646464",
".R c #666666",
".Q c #676767",
".O c #696969",
".p c #69a5a5",
".V c #6b6b6b",
".F c #6d6d6d",
".U c #6e6e6e",
".B c #707070",
".T c #727272",
".r c #737373",
".S c #757575",
".m c #777777",
".P c #797979",
"#b c #7b7b7b",
".G c #7c7c7c",
"#a c #7d7d7d",
".C c #808080",
".s c #838383",
".9 c #858585",
".d c #878787",
".5 c #8b8b8b",
".4 c #8e8e8e",
"#d c #a7a7a7",
".o c #abbbb6",
"## c #b2b2b2",
".8 c #bcbcbc",
".3 c #c7c7c7",
".2 c #d1d1d1",
".1 c #dbdbdb",
".0 c #e6e6e6",
".N c #f4e5d8",
".E c #f5e7db",
".M c #f5e8dc",
".A c #f6e8dd",
".q c #f6eae0",
".z c #f7ebe1",
".l c #f7ece2",
".L c #f7ede4",
".y c #f8eee5",
".k c #f8eee6",
".K c #f9f0e8",
".x c #f9f0e9",
".j c #f9f1ea",
".J c #faf2ec",
".w c #faf3ed",
".i c #faf4ee",
".I c #fbf5f0",
".v c #fbf6f1",
".h c #fbf6f2",
".H c #fcf8f4",
".u c #fcf8f5",
".g c #fcf9f6",
".D c #fcf9f7",
".t c #fdfbf9",
".f c #fdfcfa",
".n c #fefdfc",
".e c #ffffff",
"QtQtQtQtQtQtQtQtQtQtQtQtQtQtQtQt.#.a",
"QtQt.b.b.c.c.c.c.c.c.c.c.b.bQtQtQtQt",
"Qt.b.d.c.e.f.g.h.i.j.k.l.c.m.bQtQtQt",
"Qt.b.d.c.n.o.p.p.p.p.o.q.c.r.bQtQtQt",
"Qt.b.s.c.t.u.v.w.x.y.z.A.c.B.bQtQtQt",
"Qt.b.C.c.D.o.p.p.p.p.o.E.c.F.bQtQtQt",
"Qt.b.G.c.H.I.J.K.L.q.M.N.c.O.bQtQtQt",
"Qt.b.P.m.c.c.c.c.c.c.c.c.Q.R.bQtQtQt",
"Qt.b.S.r.T.B.U.F.V.O.Q.R.W.X.bQtQtQt",
"Qt.b.T.B.U.c.c.c.c.c.c.c.Y.Z.bQtQtQt",
"Qt.b.U.F.c.0.1.2.3.c.4.5.c.6.bQtQtQt",
"Qt.b.V.O.c.1.7.7.8.c.9.s.c#..bQtQtQt",
"Qt.b.Q.R.c.2.7.R##.c#a#b.c#c.bQtQtQt",
"Qt.b.W.X.c.3.8###d.c.S.r.c#e.bQtQtQt",
"QtQt.b.b.b.c.c.c.c.b.b.b.b.bQtQtQtQt",
"QtQtQtQtQtQtQtQtQtQtQtQtQtQtQtQtQtQt",
"QtQtQtQtQtQtQtQtQtQtQtQtQtQtQtQtQtQt",
"QtQtQtQtQtQtQtQtQtQtQtQtQtQtQtQtQtQt"};
