/* XPM */
static char *gimpicon[]={
"48 48 52 1",
"# c None",
". c None",
"H c #080704",
"E c #140d04",
"D c #1a140b",
"F c #1d1c18",
"G c #26231c",
"J c #2b2c26",
"C c #2c1c0c",
"t c #34342d",
"B c #3a250c",
"P c #3b3b32",
"A c #412b10",
"M c #433e32",
"I c #46463e",
"z c #4a341a",
"s c #514531",
"N c #514d3f",
"o c #575449",
"i c #5a5b55",
"Q c #615341",
"r c #615c4d",
"x c #666458",
"u c #6a6c66",
"k c #706d5d",
"K c #715e44",
"w c #73654e",
"U c #74736a",
"y c #7a7c7a",
"L c #80684c",
"l c #817c6b",
"g c #83837c",
"O c #8a7254",
"e c #8a8c8a",
"n c #8f8d85",
"q c #95948f",
"V c #9a7e5c",
"c c #9a9b99",
"j c #a29e94",
"p c #a2a49f",
"v c #aaabaa",
"W c #ac8c64",
"m c #afada3",
"d c #b3b5b2",
"X c #ba9b6f",
"h c #babcb8",
"f c #c2c4c2",
"b c #cbccca",
"a c #d2d5d4",
"R c #dbdcd8",
"S c #e8eae8",
"T c #f3f5f3",
"................................................",
"................................................",
"................................................",
"................................................",
"......................................####......",
"......................................#aba#.....",
".....................................##bcb#.....",
".......aba..........................##adef#.....",
".......affa............bd...........#bfggh#.....",
".......abhfb..........agia.........##bjkld#.....",
"........ahmdbbbfbfffffhnofff..##..##bpkklh#.....",
"........afjqmffhqlrrooostueevhf####bdlwxyd#.....",
".........amjggxzABBBCCCDCDDDEFivffbpkxxrld#.....",
".........bhqwzABAGBCCCCCDDDEDHEIdfqkxxrilh#.....",
"..........fjzAABBBBGCCDDCEEEEEHHelkxxroonm#.....",
"..........fmzAAABBCCCCCDDDDEEHDJrrxKrooipv##....",
"..........fhLzBBBBCCCCCFDFDFJtMNirrrrookc###....",
"..........fhqOrNMMPztJJAtJJttPINNoiooQoy###.....",
"..........RSTRnOknvdpnrIIsMMMMIsNNNNNNky###.....",
".........aTTTTandRaaaamUiQNNINIIsIsNNou####.....",
".bpiIPxmhRTSdcSaTTSSRSRhwxroNIIMMPMINi####......",
".dixuIJNVbTpyDnSTSShyyRbkxoosIMPPPMPIi####......",
".yxdduJJNqSUDHoaTTaqyEehxxrNsMPPPPttIi###.......",
".oxvpitJMkmhMIgpSSfMGHypxroNIMPPttJtNx##........",
".IIuxItPIoyylllVhRbuDPckrQNNIMPPPJJPi###........",
".IJIIPIIiixLUllllpffcqUrroNIMMtttFJIx#..........",
".uJtPPNixurxkUUOUUkkuxxrNPIMMPPPJGtN##..........",
".pJtIIiiUuirxwkkkkuKrrroPPIMPPttJJP##...........",
"..yINiuuyisNorxwrxrroosPMNNMtPPJFtN##...........",
"..dyiuuyUNIsNoorrooiNMzsQKKwwLLrioiuephffd......",
"...fcguuNIIIINsNNIMPGJMsKKLOVWXXqqegyeeiPIupb...",
".....hgNPttPPJJGGFFGtPNxkQsoKLXXepvhhdNPINiuch..",
".....#hvuMFEHHHEFGtPNirrstpppppppppqcviPNixuye..",
"......###qUiPJGFJPINriIpppppp#####p##ccyiiuyc...",
".........#############ppp##############pvvddf...",
"...........#############################........",
"............#######################.............",
"............##################..................",
"................##########......................",
".....................##.........................",
"................................................",
"................................................",
"................................................",
"................................................",
"................................................",
"................................................",
"................................................",
"................................................"};
