/* XPM */
static const char *languages[] = {
"18 18 33 1",
"  s None c None",
". c #000000",
"# c #006666",
"a c #a0a0a4",
"b c #000055",
"c c #cc9999",
"d c #ccffff",
"e c #ccff99",
"f c #999966",
"g c #666699",
"h c #669999",
"i c #339966",
"j c #66ff99",
"k c #000099",
"l c #c0c0c0",
"m c #006699",
"n c #009999",
"o c #ffffff",
"p c #ffff99",
"q c #cccccc",
"r c #dddddd",
"s c #cc9966",
"t c #999999",
"u c #99ff99",
"v c #777777",
"w c #666666",
"x c #444444",
"y c #669966",
"z c #555555",
"A c #fffbf0",
"B c #333333",
"C c #339999",
"D c #336699",
"       qvvh       ",
"    qttfDva#b#    ",
"   rstwh#acmmbhB  ",
"  rvh##mqqCkmm#DB ",
" a#Dhq#AhhCmehqb# ",
" DDhphahqhlmbmmaz.",
"a#kmkqqArmanmkmbDB",
"ah#hmahohbhnjkmb#B",
"mq#bmfqBam#bbmkbbb",
"DbmkkhfA#mkbbbqmbb",
"g#mAomqoeoCbmnb#bb",
"aamlnbqh#Ap#meba#b",
" qbCebmo#AubCqhhy.",
" CCC#ArdqhC#mh.t.w",
"  hDrrq#rmCqhbhb# ",
"  ahCCqqqrqaivxx  ",
"   aalqaqqltvz#   ",
"     DtthvzBBB    "};

