/* XPM */
static const char *loopicon[]={
"16 16 16 1",
"# c None",
". c None",
"a c #000000",
"l c #080808",
"d c #0e0e0e",
"j c #101010",
"k c #171717",
"f c #191919",
"i c #1f1f1f",
"e c #252525",
"g c #2a2a2a",
"c c #5c5c5c",
"m c #606060",
"n c #676767",
"b c #6b6b6b",
"h c #737373",
"................",
"........####....",
".......##a####..",
"...#####aa#####.",
"#.#baaaaaaccb###",
"##bdaaeaaaaadb##",
"#bfg###aaahhgfb#",
"#ij#####aa###ji#",
"#ak####.#a###ka#",
"#ak#.######.#ka#",
"#blm########mlb#",
"##maaaaaaaaaam#.",
"#.#naaaaaaaan#..",
".#############..",
".##.#######.....",
"........##......"};
