/* XPM */
static const char *newscene[] = {
"32 32 4 1",
"  s None c None",
". c #ffff00",
"# c #000000",
"a c #ffffff",
"                           ##   ",
"                           ##   ",
"      ##                   ##   ",
"     #aa##              ########",
"    #########           ########",
"     ##aaaaa###            ##   ",
"       ##########          ##   ",
"         ##aaaaa##         ##   ",
"           #########            ",
"             ##aaaaa##          ",
"               #########        ",
"                 ##aaaaa###     ",
"                   #####.a.#    ",
"                     ###a.a#    ",
"   #####################.a.#    ",
"   ########################     ",
"   ########################     ",
"   ########################     ",
"   ########################     ",
"   ########################     ",
"   ########################     ",
"   ########################     ",
"   ########################     ",
"   ########################     ",
"   ########################     ",
"   ########################     ",
"   ########################     ",
"   ########################     ",
"   ########################     ",
"   ########################     ",
"                                ",
"                                "};
