/* XPM */
static const char *nextframeicon[]={
"32 32 29 1",
"# c None",
". c None",
"a c #000000",
"y c #010000",
"d c #010002",
"l c #020003",
"b c #030104",
"c c #040205",
"z c #050304",
"j c #050306",
"n c #060407",
"p c #070508",
"r c #080609",
"g c #09070a",
"s c #0a080b",
"h c #0b090c",
"t c #0d0b0e",
"k c #121013",
"w c #706e71",
"i c #7a787b",
"o c #7d7b7e",
"v c #7e7c7f",
"u c #7f7d80",
"q c #807e81",
"A c #817f80",
"m c #848285",
"e c #858386",
"f c #868487",
"x c #8a888b",
"................................",
"................................",
"................................",
"................................",
"................................",
"................................",
"................................",
"........#.......................",
"........#.......................",
".....abb#..cde..................",
".....abd#..bdddf................",
".....abd#..dghdddi..............",
".....abd#..jcdjhdklm............",
".....aal#..ddjndndbdno..........",
".....aad#..ldbdldpdgddlq........",
".....aar#..drrddddddstddhi......",
".....aad#..dlddjldrcdddlli......",
".....abb#..bbdjlddcdndtu........",
".....abd#..ddlddlrddnv..........",
".....abb#..tddcrdbbf............",
".....abb#..ddhddhw..............",
".....abb#..dpddx................",
".....abb#..yzA..................",
"........##......................",
"................................",
"................................",
"................................",
"................................",
"................................",
"................................",
"................................",
"................................"};
