/* XPM */
static const char *note[]={
"32 32 4 1",
". c None",
"a c #000000",
"b c #0000ff",
"# c #ffffff",
"................................",
"................................",
"................................",
"................................",
"................................",
"................................",
"....................##..........",
"..................##aa#.........",
"................##aa#a#.........",
"..............##aa###a#.........",
".............#aa##..#a#.........",
"............#a##....#a#.........",
"............#a#.....#a#.........",
"............#a#.....#a#.........",
"............#a#...###a#.........",
"............#a#..#aaaa#.........",
"............#a#.#a##ba#.........",
"............#a#.#a#bba#.........",
"............#a#.#abbba#.........",
"..........###a#..#aaa#..........",
".........#aaaa#...###...........",
"........#a##ba#.................",
"........#a#bba#.................",
"........#abbba#.................",
".........#aaa#..................",
"..........###...................",
"................................",
"................................",
"................................",
"................................",
"................................",
"................................"};
