/* XPM */
static const char *openscene[]={
"16 16 4 1",
"# c None",
". c None",
"b c #000000",
"a c #89878a",
"................",
"...##.##..###...",
"..a##.##...##...",
"..ba#####.##....",
"..bbaa##.###....",
"..bbbba#####....",
"..bbbbbaa###....",
"..bbbbbbba####..",
"..bbbbbbbba##...",
"..bbbbbbbba##...",
"..bbbbbbba##....",
"..bbbbbaa###....",
".#bbbba########.",
"##bbaa#########.",
"##ba####.######.",
"..a###....#####."};
