/* XPM */
static const char *pasteicon[]={
"18 18 103 2",
"Qt c None",
".6 c #000000",
"#A c #020202",
"#B c #050505",
".N c #1c1c1c",
".# c #232110",
".F c #242424",
".z c #262626",
".s c #292929",
"#u c #2e2e2e",
"#K c #303030",
"#o c #383838",
"#c c #393939",
".7 c #3a3a3a",
".Y c #3b3b3b",
".d c #3c3c3c",
".i c #3d3d3d",
".M c #424242",
".D c #444444",
".v c #4b452a",
".c c #5a5000",
".E c #666666",
"#x c #686868",
"#w c #696969",
"#v c #6a6a6a",
".L c #6d6d6d",
".R c #707070",
".a c #716b32",
".y c #747474",
".x c #787878",
"#r c #7a7a7a",
"#q c #7b7b7b",
"#p c #7c7c7c",
".w c #7d7d7d",
"#l c #7e7e7e",
"#k c #7f7f7f",
"#j c #808080",
"#f c #818181",
"#e c #838383",
".o c #857414",
"#. c #858585",
".l c #86761f",
".9 c #878787",
".1 c #898989",
".b c #8a7e2d",
".8 c #8a8a8a",
".0 c #8b8b8b",
".X c #8d8d8d",
".Z c #8e8e8e",
".W c #8f8f8f",
".Q c #909090",
".V c #919191",
".U c #929292",
".J c #939393",
".C c #959595",
".I c #969696",
".P c #979797",
".B c #999999",
".H c #9b9b9b",
".A c #9c9c9c",
".u c #9f9f9f",
".t c #a2a2a2",
".e c #a49941",
".h c #aba062",
"#i c #afafaf",
"#d c #b6b6b6",
".n c #bbb574",
".r c #bcbcbc",
"#b c #bdac92",
".5 c #bdb4ac",
"#h c #bea585",
"#n c #bfa47f",
".q c #bfbfbf",
"#J c #c09b6b",
"#z c #c09f71",
"#t c #c0a077",
"#I c #c1a174",
"#H c #c2a67f",
"#G c #c2ab89",
".p c #c2c2c2",
"#F c #c3af94",
"#E c #c3b59e",
"#D c #c4b9a9",
"#C c #c6beb3",
".T c #c9c9c9",
".O c #cfcfcf",
".g c #d2cc8f",
".G c #d5d5d5",
".k c #dcdcdc",
".K c #dedede",
".4 c #e1dedc",
".j c #e2e2e2",
"#y c #e9c9a0",
"#s c #ebd0aa",
"#m c #edd6b8",
"#g c #f0ddc1",
"#a c #f1e3ce",
"## c #f5e9da",
".m c #f6f6db",
".3 c #f8f0e5",
".2 c #f9f6f2",
".S c #fbf7f4",
".f c #ffffff",
"QtQtQtQtQt.#.a.b.cQtQtQtQtQtQtQtQtQt",
"Qt.d.d.d.d.e.f.g.h.c.d.d.d.dQtQtQtQt",
".i.j.k.k.l.m.g.n.e.o.c.p.q.r.sQtQtQt",
".d.k.t.u.l.c.c.v.v.v.v.w.x.y.zQtQtQt",
".d.k.u.A.B.C.D.D.D.D.D.D.D.E.FQtQtQt",
".d.G.H.B.I.J.D.K.K.K.K.K.L.M.NQtQtQt",
".d.O.P.C.J.Q.D.K.f.f.f.f.R.S.MQtQtQt",
".d.T.U.V.W.X.D.K.f.f.f.f.R.R.M.MQtQt",
".Y.p.Z.X.0.1.D.K.f.f.f.2.3.4.5.6QtQt",
".7.r.8.1.9#..D.K.f.f.2.3###a#b.6QtQt",
"#c#d#.#.#e#f.D.K.f.2.3###a#g#h.6QtQt",
"#c#i#f#j#k#l.D.K.2.3###a#g#m#n.6QtQt",
"#o#i.w#p#q#r.D.K.3###a#g#m#s#t.6QtQt",
"#u.E#v#v#w#x.D.K###a#g#m#s#y#z.6QtQt",
"Qt#A#A#A#A#B.D#C#D#E#F#G#H#I#J.6QtQt",
"QtQtQtQtQtQt.D.6.6.6.6.6.6.6.6#KQtQt",
"QtQtQtQtQtQtQtQtQtQtQtQtQtQtQtQtQtQt",
"QtQtQtQtQtQtQtQtQtQtQtQtQtQtQtQtQtQt"};
