/* XPM */
static const char *previousframeicon[]={
"32 32 31 1",
"# c None",
". c None",
"d c #000000",
"y c #010000",
"c c #010002",
"x c #020001",
"h c #020003",
"f c #030104",
"e c #040205",
"j c #050306",
"z c #060405",
"b c #060407",
"p c #070508",
"A c #080607",
"n c #080609",
"k c #09070a",
"C c #0a0809",
"i c #0a080b",
"q c #0b090c",
"r c #0c0a0d",
"u c #0d0b0e",
"B c #100e0f",
"s c #100e11",
"m c #7b797c",
"v c #807e81",
"t c #817f82",
"a c #848285",
"g c #868487",
"l c #888689",
"w c #8a8889",
"o c #8a888b",
"................................",
"................................",
"................................",
"................................",
"................................",
"................................",
"................................",
"................................",
".....................####.......",
".................abc..#ccd......",
"...............aeecb..#cfd......",
".............gcchccc..#hcd......",
"...........acbcicjkc.##chd......",
".........lhchjcjcccc.##ckd......",
".......mekcccncccccc.##hcd......",
".....ocpccqfccjjcccc.##ecd......",
".....orcchnccbjccccc.##ccd......",
".......ahccsiccfcccc.##pqd......",
".........tecckcpcccc.##ccd......",
"...........occuccccc.##ccd......",
".............vcccccc.##cfd......",
"...............wxyyz.##yAd......",
".................wBy.##Cyd......",
".....................##.........",
".....................##.........",
".....................#..........",
"................................",
"................................",
"................................",
"................................",
"................................",
"................................"};
