/* XPM */
static const char *removeframeicon[] = {
"32 32 169 2",
"   s None c None",
".. c #000000",
"#. c #808080",
"a. c #1c6800",
"b. c #6f9ebc",
"c. c #054600",
"d. c #52565a",
"e. c #13430d",
"f. c #126100",
"g. c #323931",
"h. c #2d6b98",
"i. c #27669b",
"j. c #0c170b",
"k. c #353947",
"l. c #2f293d",
"m. c #473f4b",
"n. c #838184",
"o. c #003400",
"p. c #4d79a0",
"q. c #020204",
"r. c #20141c",
"s. c #6999c4",
"t. c #a0a0a4",
"u. c #4a85b6",
"v. c #bcd6b1",
"w. c #5495c4",
"x. c #13486d",
"y. c #b5cdad",
"z. c #a69e97",
"A. c #3c3b3d",
"B. c #145008",
"C. c #797679",
"D. c #5a854a",
"E. c #818d96",
"F. c #b1cde3",
"G. c #1b5a88",
"H. c #2e6e9c",
"I. c #5e8fb4",
"J. c #4175a4",
"K. c #88837f",
"L. c #a7c3d7",
"M. c #b5d5aa",
"N. c #64a0d4",
"O. c #bad8ef",
"P. c #386b8f",
"Q. c #9abedb",
"R. c #5d7e94",
"S. c #356e97",
"T. c #086700",
"U. c #0c7000",
"V. c #5b88af",
"W. c #548dbb",
"X. c #2c6996",
"Y. c #8aafc9",
"Z. c #c0e1b1",
"0. c #618453",
"1. c #413a42",
"2. c #0b3e00",
"3. c #23191f",
"4. c #406c8e",
"5. c #102812",
"6. c #3b393f",
"7. c #3f759c",
"8. c #246208",
"9. c #336666",
".# c #245e86",
"## c #333558",
"a# c #9eaab3",
"b# c #85807d",
"c# c #bac0c5",
"d# c #68869d",
"e# c #646565",
"f# c #478bbe",
"g# c #858086",
"h# c #4d8fc0",
"i# c #f6f6f6",
"j# c #27567c",
"k# c #787979",
"l# c #e8f0f6",
"m# c #2c5677",
"n# c #558bb8",
"o# c #c0c0c0",
"p# c #0d4165",
"q# c #2b6fa6",
"r# c #aabcaa",
"s# c #1f8b00",
"t# c #160c1e",
"u# c #393f65",
"v# c #1e1e1e",
"w# c #6788a1",
"x# c #2e8107",
"y# c #033800",
"z# c #797373",
"A# c #2c2a29",
"B# c #67a3d8",
"C# c #bcdfaf",
"D# c #0d080b",
"E# c #1c162b",
"F# c #4a82ac",
"G# c #6faadd",
"H# c #649ec9",
"I# c #3d81b7",
"J# c #335a75",
"K# c #aeceab",
"L# c #b2d7ab",
"M# c #242424",
"N# c #070b0f",
"O# c #ffffff",
"P# c #083a5c",
"Q# c #b2d5ac",
"R# c #434244",
"S# c #4485b9",
"T# c #265475",
"U# c #7b9cba",
"V# c #dddddd",
"W# c #276591",
"X# c #b6dcad",
"Y# c #298303",
"Z# c #597b93",
"0# c #73787b",
"1# c #3475ac",
"2# c #cccccc",
"3# c #1f567e",
"4# c #1a5178",
"5# c #1c2a1a",
"6# c #3c7cb1",
"7# c #1b5178",
"8# c #86a5be",
"9# c #cfddc9",
".a c #4d85b4",
"#a c #04385e",
"aa c #ebeff3",
"ba c #d1e1ef",
"ca c #b7ddad",
"da c #7f7776",
"ea c #619acc",
"fa c #5d8ab0",
"ga c #777777",
"ha c #161517",
"ia c #8facc3",
"ja c #9a948e",
"ka c #4388bd",
"la c #185987",
"ma c #3a383d",
"na c #2d3928",
"oa c #5999d2",
"pa c #b3cee5",
"qa c #5c8daf",
"ra c #bad5ea",
"sa c #288c00",
"ta c #175e00",
"ua c #3b383d",
"va c #2a292b",
"wa c #1e1d20",
"xa c #bccad4",
"ya c #555555",
"za c #fffbf0",
"Aa c #5187b3",
"Ba c #b0d0ab",
"Ca c #112814",
"Da c #232437",
"Ea c #444444",
"Fa c #2c2b2a",
"Ga c #035a00",
"Ha c #427aa9",
"Ia c #5c585c",
"Ja c #222222",
"Ka c #114200",
"La c #111111",
"                                                                ",
"      V#                o#          #.      #.                  ",
"    V##.ga  ga        #.o#2#      ya#.o#  #.o##.                ",
"  V#t.gaEaLaV#La    ya#.o#2#2#  Jaya#.o#o#O##.o##.              ",
"V#t.t.gaEaLaLaV#LaJaya#.#.o#2#JaJaya#.#.o#o#O##.o##.            ",
"  V#t.EaEaLaLaEaEaEaJaJaJaJaJaJaJayaya#.#.EaEaEaEaEaEaEa        ",
"    V#EaJaEaEayayayayayayaEaJaJaJaJayagaV#yayayayayaga#.#.      ",
"        ......V##.#.#.#.yaEa..............V#yayagaga#.#.o#o#    ",
"        Ja9.#.t.V#t.t.t.yazazaV#o#t.t.#.#.gaV#gaga#.#.o#o#      ",
"        Ja9.#.t.t.V#o#gaO#zazaV#o#t.t.t.#.#.JaV##.#.t.o#        ",
"        Ja9.#.t.t.V#gaO#O#O#zaV#o#t.t.#.#.gayaLaV#o#o#          ",
"        Ja9.#.t.t.V#zaO#O#O#zaV#o#t.t.t.#.#.yaEaJaV#            ",
"        La9.#.t.t.V#zaO#O#O#zaV#o#t.t.#.#.gagayaEa..            ",
"        Lai#i#i#i#i#i#i#i#i#i#i#i#i#i#i#i#i#i#i#i#..            ",
"        Lai#R.P#P#p#x.7#4#4#3#.#S.7.7.b.qaT#J#J#i#..            ",
"        Lai#Z##a#alaG.W#X.X.h.H.F#I.I.L.Y.P.4.4.i#..            ",
"        Lai#w#j#j#O.raAaq#q#I#kaw.H#H#bapaW.n#n#i#..            ",
"        Lai#d#m#m#l#aafai.i.6#S#f#h#h#F.Q.u..a.ai#..            ",
"        Lai#d#m#m#l#aafai.i.6#S#f#h#h#F.Q.u..a.ai#..            ",
"        Lai#d.N#N#jaz.c#xaxaia8#s.eaeaB#oa1#HaHai#..            ",
"        Lai#e#v#v#b#K.k#0#0#E.a#U#V.V.G#N.J.p.p.i#..            ",
"        Lai#g#1.1.wavaFaA#A#z#dam.l.l.u###Dak.k.i#..            ",
"        Lai#n.uauaq.haA.R#R#C.Ia3.r.r.E#t#D#M#M#i#..            ",
"        Lai#n.uauaq.haA.R#R#C.Ia3.r.r.E#t#D#M#M#i#..            ",
"        Lai#0.KaKanag.6.mama5#j.2.tatax#Y#f.8.8.i#..            ",
"        Lai#D.c.c.B.e.Ca5.5.y#o.GaU.U.sas#T.a.a.i#..            ",
"        Lai#9#y.y.L#K#r#r#r#BaQ#X#cacaZ.C#M.v.v.i#..            ",
"        Lai#i#i#i#i#i#i#i#i#i#i#i#i#i#i#i#i#i#i#i#..            ",
"        La9.#.t.o#V#zazaO#zazaV#o#t.t.#.#.gagayaEa..            ",
"        LaLaLaLaLaLaLaLaLaLaLaLaLaLaLaLaLaLaLaLaLa..            ",
"          ........................................              ",
"                                                                "};
