/* XPM */
static const char *removescene[] = {
"32 32 16 1",
"  s None c None",
". c #808080",
"# c #000000",
"a c #a0a0a4",
"b c #ffff00",
"c c #336666",
"d c #c0c0c0",
"e c #ffffff",
"f c #dddddd",
"g c #cccccc",
"h c #777777",
"i c #fffbf0",
"j c #555555",
"k c #444444",
"l c #111111",
"m c #222222",
"                                ",
"   f        d     .   .         ",
"  f.h h    .dg   j.d .d.        ",
" fahklfl  j.dgg mj.dde.d.       ",
"faahkllflmj..dgmmj..dde.d.      ",
" fakkllkkkmmmmmmmjj..kkkkkkk    ",
"  fkmkkjjjjjjkmmmmjhfjjjjjh..   ",
"    ###f....jk#######fjjhh..dd  ",
"    mc.afaaajiifdaa..hfhh..dd   ",
"    mc.aafdheiifdaaa..mf..ad    ",
"    mc.aaf#eeeifdaa..hjlfdd     ",
"    mc.aa#e#eeifdaaa..jkmf      ",
"    lc.aa##eee##daa..hhjk#      ",
"    lc.adfi######aaa..hhk#      ",
"    lc.adfiee######..hhjk#      ",
"    lc.adfieeeif#####.hhk#      ",
"    lc.adfieeeifd#eee##jk#      ",
"    lc.adfieeeifdaa##ee#k#      ",
"    lc.a#############bb#k#      ",
"    lc.a###############hk#      ",
"    lc.a###############jk#      ",
"    lc.a###############hk#      ",
"    lc.a###############jk#      ",
"    lc.a###############hk#      ",
"    lc.a###############jk#      ",
"    lc.a###############hk#      ",
"    lc.a###############jk#      ",
"    lc.a###############hk#      ",
"    lc.adfiieiifdaa..hhjk#      ",
"    lllllllllllllllllllll#      ",
"     ####################       ",
"                                "};
