/* XPM */
static const char *stopicon[]={
"16 16 2 1",
". c None",
"# c #000000",
"................",
"................",
"................",
"................",
"....########....",
"....########....",
"....########....",
"....########....",
"....########....",
"....########....",
"....########....",
"....########....",
"................",
"................",
"................",
"................"};
