/* XPM */
static const char *videoexport[] = {
"18 18 5 1",
". c #ffff00",
"# c #000000",
"a c #ffffff",
"b c #00ffff",
"c c #c0c0c0",
"##################",
"cc#cc#cc#c#cc#cc#c",
"cc#cc#cc#c#cc#cc#c",
"##################",
"c##cccccccccccc###",
"c#cccccc##cccccc#c",
"c#ccbbba##aabbcc#c",
"c#ccaaa####baacc#c",
"c#baa###..###aac#c",
"c#ba#aa#aa#ba#aa#c",
"c#baaaa#aa#baaaa#c",
"c#baaaa#aa#baaaa#c",
"c#abbbb#aa#abbbb#c",
"c#abbba####abbbb#c",
"##################",
"cc#cc#cc#c#cc#cc#c",
"cc#cc#cc#c#cc#cc#c",
"##################"};
