/* XPM */
static const char *whatsthisicon[]={
"16 16 13 1",
". c None",
"a c #000000",
"# c #000080",
"f c #7e7c77",
"b c #817f7a",
"e c #898681",
"c c #8a8782",
"d c #8b8984",
"k c #8c8a85",
"g c #8e8b86",
"i c #97948e",
"j c #999691",
"h c #a29f99",
".........####a..",
"........######a.",
"a......##abcd##a",
"aa.....#ab....#a",
"aaa....##a....#a",
"aaaa....##...##a",
"aaaaa.......##ab",
"aaaaaa.....##ab.",
"aaaaaaa...##ab..",
"aaaaaaaa..##ae..",
"aaaaafeg...ab...",
"aafaae......h...",
"ag..aa....##a...",
"....aai...##aj..",
".....aa....jkj..",
".....aai........"};
