/* XPM */
static const char *windowicon[]={
"16 16 132 2",
"Qt c None",
".3 c #000000",
"#S c #000000",
"ab c #2c210d",
"#7 c #382b10",
"#b c #141413",
"aa c #161006",
"#l c #151514",
".f c #1e1d1b",
"a. c #745922",
"#8 c #5f491c",
".J c #11100f",
"#Z c #493815",
".p c #252422",
"#3 c #1c1c1c",
".o c #1f1e1c",
".S c #131312",
"#K c #181813",
"#O c #181813",
".T c #272624",
".# c #4d4d48",
"a# c #5b451b",
"#9 c #473615",
"#Y c #96722c",
"#6 c #745922",
".z c #373532",
".g c #545451",
"#T c #b79c68",
".K c #3a3835",
"#m c #181816",
"#a c #1a1a19",
"#w c #1b1b19",
"#E c #030200",
"#P c #1a1a19",
"#R c #1a1a18",
".e c #53514f",
"#2 c #bf9544",
"#0 c #ae9158",
"#F c #151412",
".4 c #2e2c2b",
"#J c #060503",
"#4 c #bc9037",
".a c #7c7977",
".y c #2e2c2a",
"#I c #0d0d0a",
"#x c #0f0f0c",
".d c #74736f",
"#D c #131211",
"#X c #6d5b35",
".b c #969492",
".n c #4b4a48",
".2 c #6f6f6e",
"#U c #9c8e73",
"#c c #6e6e6d",
"#k c #2e2e2e",
".q c #807c7a",
".c c #959492",
"#5 c #d9a640",
"#N c #232220",
"#L c #242321",
"#y c #151412",
".h c #b6b5b4",
".I c #4d4c4b",
".U c #676563",
"#C c #1b1a18",
"#v c #292827",
"#o c #2c2b29",
"#u c #2d2d2b",
"#B c #2e2d2c",
"#j c #30302f",
"## c #353533",
"#d c #393736",
".Y c #3b3936",
"#z c #3f3e3c",
"#H c #3f3f3d",
"#i c #44413d",
"#G c #454442",
".O c #474542",
".x c #484643",
"#n c #494948",
".5 c #544f47",
"#. c #594622",
".w c #5b5857",
".E c #63605e",
".Z c #636261",
".v c #6c6a68",
".X c #6c6b6a",
".A c #6d6b69",
".m c #767471",
".u c #807e7c",
".L c #817f7d",
".l c #878683",
".P c #878787",
"#e c #897348",
".N c #8c8c8b",
".6 c #8d7547",
".t c #908f8c",
".D c #929190",
".7 c #967c49",
".k c #999795",
".R c #9d9c9b",
".s c #a09f9c",
"#Q c #a0a09f",
"#h c #a27419",
".8 c #a2864d",
".9 c #a68442",
".W c #a6a6a6",
".j c #a9a8a6",
".r c #b1afad",
".F c #b2b2b1",
".M c #b5b5b5",
".i c #b8b7b5",
".B c #bfbebe",
".Q c #c0c0c0",
"#r c #c49436",
"#V c #c5c3c0",
"#q c #cebb96",
".0 c #d3d3d3",
".H c #d4d4d3",
".C c #d6d6d5",
"#M c #dfdfde",
"#s c #e1ded8",
"#t c #e3e3e2",
"#p c #e3e3e3",
".V c #f1f1f1",
"#1 c #f4c770",
"#f c #f5d189",
"#g c #f8ba41",
"#W c #fafafa",
".1 c #fbfbfb",
"#A c #fdfdfd",
".G c #ffffff",
"QtQtQtQtQt.#.a.b.c.d.e.fQtQtQtQt",
"QtQtQtQt.g.h.i.j.k.l.m.n.oQtQtQt",
"QtQtQt.p.q.r.s.t.u.v.w.x.yQtQtQt",
"QtQtQt.z.A.B.C.D.E.F.G.H.I.JQtQt",
"QtQtQt.K.L.G.M.N.O.P.Q.G.R.SQtQt",
"QtQtQt.T.U.V.W.X.Y.Z.0.1.2.3QtQt",
"QtQtQtQt.4.5.6.7.8.9#.###aQtQtQt",
"QtQtQt#b#c#d#e#f#g#h#i#j#k#lQtQt",
"QtQtQt#m#n#o#p#q#r#s#t#u#v#wQtQt",
"QtQtQt#x#y#z.G.G#A.G.G#B#C#DQtQt",
"QtQtQt#E#F#G.G.G.G.G.G#H#I#JQtQt",
"QtQtQtQt#K#L#M.G.G.G#M#N#OQtQtQt",
"QtQtQtQtQt#P#Q.G.G.G#Q#RQtQtQtQt",
"QtQtQtQt#S#T#U#V#W#V#X#Y.3QtQtQt",
"QtQtQtQt#Z#0#1#2#3#4#5#6#7QtQtQt",
"QtQtQtQtQt#8#9a.Qta#aaabQtQtQtQt"};
