/* XPM */
static char * windowicon[] = {
"16 16 7 1",
" 	c None",
".	c #D40000",
"+	c #D50000",
"@	c #D30000",
"#	c #0000C6",
"$	c #0000C5",
"%	c #000000",
"                ",
"     .+     ..  ",
"   +....   .... ",
"   ...... @.....",
"   .....  ......",
"    ....   .... ",
"     @@     ..  ",
"                ",
"##$    %%%%%    ",
"###$  %%%%%%    ",
"##### %%%%%%    ",
"##### %%%%%%    ",
"####  %%%%%%    ",
"###    %%%%%    ",
"#$              ",
"                "};
